<mxfile host="app.diagrams.net" modified="2024-02-26T17:46:10.206Z" agent="Mozilla/5.0 (Windows NT 10.0; Win64; x64) AppleWebKit/537.36 (KHTML, like Gecko) Chrome/122.0.0.0 Safari/537.36" etag="WkjZZiOnNhzfAECWMM08" version="23.1.6" type="device">
  <diagram name="Strona-1" id="qy1Jm_Iqj7MS-9nRdHLV">
    <mxGraphModel dx="1434" dy="746" grid="1" gridSize="10" guides="1" tooltips="1" connect="1" arrows="1" fold="1" page="1" pageScale="1" pageWidth="827" pageHeight="1169" math="0" shadow="0">
      <root>
        <mxCell id="0" />
        <mxCell id="1" parent="0" />
        <mxCell id="OxWq2e9dRvpqX101Ur8p-1" value="urządzenie kontroli temperatury" style="html=1;whiteSpace=wrap;" parent="1" vertex="1">
          <mxGeometry x="334" y="140" width="110" height="50" as="geometry" />
        </mxCell>
        <mxCell id="OxWq2e9dRvpqX101Ur8p-2" value="termostat" style="html=1;whiteSpace=wrap;" parent="1" vertex="1">
          <mxGeometry x="334" y="260" width="110" height="50" as="geometry" />
        </mxCell>
        <mxCell id="OxWq2e9dRvpqX101Ur8p-3" value="obsługa" style="html=1;whiteSpace=wrap;" parent="1" vertex="1">
          <mxGeometry x="334" y="365" width="110" height="50" as="geometry" />
        </mxCell>
        <mxCell id="OxWq2e9dRvpqX101Ur8p-4" value="" style="endArrow=diamondThin;endFill=0;endSize=24;html=1;rounded=0;fontSize=12;" parent="1" source="OxWq2e9dRvpqX101Ur8p-2" target="OxWq2e9dRvpqX101Ur8p-1" edge="1">
          <mxGeometry width="160" relative="1" as="geometry">
            <mxPoint x="384" y="240" as="sourcePoint" />
            <mxPoint x="544" y="240" as="targetPoint" />
          </mxGeometry>
        </mxCell>
        <mxCell id="OxWq2e9dRvpqX101Ur8p-10" value="1" style="edgeLabel;html=1;align=center;verticalAlign=middle;resizable=0;points=[];fontSize=12;" parent="OxWq2e9dRvpqX101Ur8p-4" vertex="1" connectable="0">
          <mxGeometry x="0.3143" y="-3" relative="1" as="geometry">
            <mxPoint x="12" y="-4" as="offset" />
          </mxGeometry>
        </mxCell>
        <mxCell id="OxWq2e9dRvpqX101Ur8p-11" value="3" style="edgeLabel;html=1;align=center;verticalAlign=middle;resizable=0;points=[];fontSize=12;" parent="OxWq2e9dRvpqX101Ur8p-4" vertex="1" connectable="0">
          <mxGeometry x="-0.4" relative="1" as="geometry">
            <mxPoint x="15" y="11" as="offset" />
          </mxGeometry>
        </mxCell>
        <mxCell id="OxWq2e9dRvpqX101Ur8p-5" value="" style="endArrow=diamondThin;endFill=0;endSize=24;html=1;rounded=0;fontSize=12;" parent="1" source="OxWq2e9dRvpqX101Ur8p-3" target="OxWq2e9dRvpqX101Ur8p-2" edge="1">
          <mxGeometry width="160" relative="1" as="geometry">
            <mxPoint x="534" y="380" as="sourcePoint" />
            <mxPoint x="534" y="310" as="targetPoint" />
          </mxGeometry>
        </mxCell>
        <mxCell id="OxWq2e9dRvpqX101Ur8p-12" value="1" style="edgeLabel;html=1;align=center;verticalAlign=middle;resizable=0;points=[];fontSize=12;" parent="OxWq2e9dRvpqX101Ur8p-5" vertex="1" connectable="0">
          <mxGeometry x="0.2727" y="-1" relative="1" as="geometry">
            <mxPoint x="14" y="-10" as="offset" />
          </mxGeometry>
        </mxCell>
        <mxCell id="OxWq2e9dRvpqX101Ur8p-13" value="1" style="edgeLabel;html=1;align=center;verticalAlign=middle;resizable=0;points=[];fontSize=12;" parent="OxWq2e9dRvpqX101Ur8p-5" vertex="1" connectable="0">
          <mxGeometry x="0.3091" relative="1" as="geometry">
            <mxPoint x="15" y="21" as="offset" />
          </mxGeometry>
        </mxCell>
        <mxCell id="OxWq2e9dRvpqX101Ur8p-6" value="ręczna" style="html=1;whiteSpace=wrap;" parent="1" vertex="1">
          <mxGeometry x="264" y="510" width="110" height="50" as="geometry" />
        </mxCell>
        <mxCell id="OxWq2e9dRvpqX101Ur8p-7" value="ręczna i przy pomocy zegara" style="html=1;whiteSpace=wrap;" parent="1" vertex="1">
          <mxGeometry x="453" y="510" width="110" height="50" as="geometry" />
        </mxCell>
        <mxCell id="OxWq2e9dRvpqX101Ur8p-8" value="" style="endArrow=block;endSize=16;endFill=0;html=1;rounded=0;exitX=0.327;exitY=-0.02;exitDx=0;exitDy=0;exitPerimeter=0;" parent="1" source="OxWq2e9dRvpqX101Ur8p-6" target="OxWq2e9dRvpqX101Ur8p-3" edge="1">
          <mxGeometry width="160" relative="1" as="geometry">
            <mxPoint x="279.5" y="485" as="sourcePoint" />
            <mxPoint x="358.5" y="430" as="targetPoint" />
          </mxGeometry>
        </mxCell>
        <mxCell id="OxWq2e9dRvpqX101Ur8p-9" value="" style="endArrow=block;endSize=16;endFill=0;html=1;rounded=0;exitX=0.382;exitY=0.02;exitDx=0;exitDy=0;exitPerimeter=0;" parent="1" source="OxWq2e9dRvpqX101Ur8p-7" target="OxWq2e9dRvpqX101Ur8p-3" edge="1">
          <mxGeometry width="160" relative="1" as="geometry">
            <mxPoint x="444" y="480" as="sourcePoint" />
            <mxPoint x="523" y="425" as="targetPoint" />
          </mxGeometry>
        </mxCell>
      </root>
    </mxGraphModel>
  </diagram>
</mxfile>
